<svg xmlns="http://www.w3.org/2000/svg" viewBox="0 0 254.6 65.2"><g fill="#06263d"><path d="M78.4 24.6v-3.7h-5.1v31.3h5.1V34.7c0-1.9.5-3.8 1.4-5.3 1.8-3 4.2-4.3 7.1-3.9 1.2.2 2.3-.1 3.2-.9.9-.8 1.4-1.9 1.4-3v-1.2l-.3-.1c-7.1-1.6-11.2 2.4-12.8 4.3zM67.1 44.9l-1-.7c-.7-.5-1.7-.4-2.3.3-.8.9-1.7 1.6-2.6 2.1-1.2.7-2.9 1-4.8 1s-3.6-.5-5.1-1.5c-1.5-1-2.7-2.3-3.6-4.1-.9-1.8-1.3-3.8-1.3-6s.4-4.2 1.3-6c.9-1.7 2.1-3.1 3.6-4.1 1.5-1 3.2-1.5 5.1-1.5 2.7 0 5.1 1.1 6.9 3.3.6.7 1.7.9 2.5.3l.9-.7c.4-.3.6-.8.7-1.3 0-.5-.1-1-.5-1.4-1.2-1.4-2.6-2.5-4-3.3-1.8-1.1-4-1.6-6.5-1.6-2.9 0-5.5.7-7.8 2.1-2.3 1.4-4.1 3.3-5.4 5.8-1.3 2.4-1.9 5.3-1.9 8.3s.7 5.9 1.9 8.3c1.3 2.5 3.1 4.4 5.4 5.8 2.3 1.4 4.9 2.1 7.9 2.1 2.4 0 4.7-.5 6.8-1.6 1.6-.8 3-1.8 4.2-3 .4-.4.5-.9.5-1.4-.2-.4-.4-.9-.9-1.2zM114.1 21.8c-2.2-1.3-4.7-2-7.4-2-2.9 0-5.5.7-7.8 2.1-2.3 1.4-4.1 3.3-5.3 5.8-1.3 2.4-1.9 5.3-1.9 8.3s.7 5.9 1.9 8.3c1.3 2.5 3.1 4.4 5.4 5.8 2.3 1.4 4.9 2.1 7.9 2.1 3.2 0 6-.6 8.3-1.9 1.9-1 3.5-2.4 4.8-4 .3-.4.4-.9.3-1.4-.1-.5-.4-.9-.8-1.2l-1-.7c-.8-.5-1.8-.3-2.4.4-.9 1.1-1.9 2-3.1 2.7-1.6.9-3.7 1.4-6.1 1.4-3 0-5.4-1-7.1-3.1-1.7-2-2.6-4.4-2.9-7.2h24.3v-.3c0-.4.1-1.1.1-1.9 0-2.8-.6-5.4-1.9-7.7-1.4-2.3-3.1-4.1-5.3-5.5zM97.1 33c.5-2.4 1.5-4.4 3.1-6 1.7-1.7 3.8-2.5 6.5-2.5s4.9.7 6.5 2.2c1.5 1.4 2.5 3.5 2.9 6.3h-19zM150.7 24.5c-1.1-1.4-2.5-2.4-4-3.3-1.8-1-3.9-1.5-6.1-1.5-2.9 0-5.5.7-7.8 2.1-2.3 1.4-4.1 3.3-5.3 5.7-1.3 2.4-1.9 5.2-1.9 8.3 0 3.1.7 6 1.9 8.4 1.3 2.5 3.1 4.4 5.4 5.8 2.3 1.4 4.9 2.1 7.8 2.1 2.2 0 4.2-.5 6-1.5 1.5-.8 2.8-1.9 3.9-3.2v4.7h5.1v-32h-.4c-2.5 0-4.5 1.9-4.6 4.4zm0 11.5c0 2.2-.4 4.2-1.3 6-.9 1.7-2.1 3.1-3.6 4.1-1.5 1-3.3 1.5-5.2 1.5-1.9 0-3.6-.5-5.1-1.5-1.5-1-2.7-2.3-3.5-4.1-.9-1.8-1.3-3.8-1.3-6s.4-4.2 1.3-5.9c.9-1.7 2-3.1 3.5-4.1 1.5-1 3.2-1.5 5.1-1.5 1.9 0 3.7.5 5.2 1.5s2.7 2.3 3.6 4.1c.8 1.7 1.3 3.7 1.3 5.9zM171.7 11h-.4c-2.6 0-4.7 2.1-4.7 4.7v4.9h-6.5v4.7h6.5v27h5.1v-27h6.8v-4.7h-6.8V11zM203.8 21.8c-2.2-1.3-4.7-2-7.4-2-2.9 0-5.5.7-7.8 2.1-2.3 1.4-4.1 3.3-5.3 5.8-1.3 2.4-1.9 5.3-1.9 8.3s.7 5.9 1.9 8.3c1.3 2.5 3.1 4.4 5.4 5.8 2.3 1.4 4.9 2.1 7.9 2.1 3.2 0 6-.6 8.3-1.9 1.9-1 3.5-2.4 4.8-4 .3-.4.4-.9.3-1.4-.1-.5-.4-.9-.8-1.2l-1-.7c-.8-.5-1.8-.3-2.4.4-.9 1.1-1.9 2-3.1 2.7-1.6.9-3.7 1.4-6.1 1.4-3 0-5.4-1-7.1-3.1-1.7-2-2.6-4.4-2.9-7.2h24.3v-.3c0-.4.1-1.1.1-1.9 0-2.8-.6-5.4-1.9-7.7-1.4-2.3-3.1-4.1-5.3-5.5zM186.7 33c.5-2.4 1.5-4.4 3.1-6 1.7-1.7 3.8-2.5 6.5-2.5s4.9.7 6.5 2.2c1.5 1.4 2.5 3.5 2.9 6.3h-19zM216.7 11.5v40.7h5.1V6.9h-.4c-2.6 0-4.7 2.1-4.7 4.6zM249.8 20.6l-9.2 23.9-9.5-23.7-.1-.2h-5.3l12.1 31.7-3.8 10.5c-.2.6-.1 1.2.2 1.7.3.5.9.8 1.5.8h2.5l16.3-44.6h-4.7z"/></g><path d="M15.2 58.2c-1.7 0-3.2.3-4.7.8 1 1.6 2 3.1 2.9 4.3.9 1.3 2.9 1.2 3.7-.1l2.6-4.2c-1.4-.6-2.9-.8-4.5-.8z" fill="#06263d"/><path d="M5.8 24c3.2 0 5.8-2.6 5.8-5.8 0-3.2-2.6-5.8-5.8-5.8S0 15.1 0 18.2C0 21.4 2.6 24 5.8 24z" fill="#f05151"/><circle cx="24.5" cy="5.8" r="5.8" fill="#ffc647"/><path d="M15.5 42.3c-4.9 0-9.2 2.1-12.3 5.4.1.1 3.6 5.8 6.3 10.2 1.7-.7 3.6-1.1 5.5-1.1s3.7.4 5.3 1c0 0 6.3-10.9 6.4-11-2.8-2.8-6.8-4.5-11.2-4.5z" fill="#64c5b4"/><path d="M15.5 42.3c4.4 0 8.4 1.7 11.4 4.5 2-2.5 3.2-5.7 3.2-9.2V16.1c-8.1 0-14.7 6.6-14.7 14.7v5.8c-.8-5-7-9-14.6-9v14.8c0 2 .9 3.8 2.3 5.4 3.2-3.4 7.6-5.5 12.4-5.5z" fill="#06263d"/></svg>